<mxfile host="app.diagrams.net" modified="2023-06-06T01:31:11.525Z" agent="Mozilla/5.0 (Windows NT 10.0; Win64; x64) AppleWebKit/537.36 (KHTML, like Gecko) Chrome/113.0.0.0 Safari/537.36" etag="ZdpW3jzfoISH8LIa8MbU" version="21.2.1" type="github">
  <diagram name="第 1 页" id="kEsdCzPGTC06tF2OzjXu">
    <mxGraphModel dx="1195" dy="630" grid="1" gridSize="10" guides="1" tooltips="1" connect="1" arrows="1" fold="1" page="1" pageScale="1" pageWidth="1169" pageHeight="1654" math="0" shadow="0">
      <root>
        <mxCell id="0" />
        <mxCell id="1" parent="0" />
        <mxCell id="dWIAZpZKa0cs_iQSi05g-6" style="edgeStyle=orthogonalEdgeStyle;rounded=0;orthogonalLoop=1;jettySize=auto;html=1;exitX=1;exitY=0.25;exitDx=0;exitDy=0;" edge="1" parent="1" source="dWIAZpZKa0cs_iQSi05g-1" target="dWIAZpZKa0cs_iQSi05g-2">
          <mxGeometry relative="1" as="geometry" />
        </mxCell>
        <mxCell id="dWIAZpZKa0cs_iQSi05g-8" style="edgeStyle=orthogonalEdgeStyle;rounded=0;orthogonalLoop=1;jettySize=auto;html=1;exitX=1;exitY=0.75;exitDx=0;exitDy=0;" edge="1" parent="1" source="dWIAZpZKa0cs_iQSi05g-1" target="dWIAZpZKa0cs_iQSi05g-4">
          <mxGeometry relative="1" as="geometry" />
        </mxCell>
        <mxCell id="dWIAZpZKa0cs_iQSi05g-1" value="zabbix server" style="whiteSpace=wrap;html=1;aspect=fixed;" vertex="1" parent="1">
          <mxGeometry x="40" y="120" width="140" height="140" as="geometry" />
        </mxCell>
        <mxCell id="dWIAZpZKa0cs_iQSi05g-2" value="zabbix agent" style="rounded=1;whiteSpace=wrap;html=1;" vertex="1" parent="1">
          <mxGeometry x="260" y="120" width="120" height="30" as="geometry" />
        </mxCell>
        <mxCell id="dWIAZpZKa0cs_iQSi05g-7" style="edgeStyle=orthogonalEdgeStyle;rounded=0;orthogonalLoop=1;jettySize=auto;html=1;exitX=0;exitY=0.5;exitDx=0;exitDy=0;" edge="1" parent="1" source="dWIAZpZKa0cs_iQSi05g-3" target="dWIAZpZKa0cs_iQSi05g-1">
          <mxGeometry relative="1" as="geometry" />
        </mxCell>
        <mxCell id="dWIAZpZKa0cs_iQSi05g-3" value="zabbix agent" style="rounded=1;whiteSpace=wrap;html=1;" vertex="1" parent="1">
          <mxGeometry x="260" y="175" width="120" height="30" as="geometry" />
        </mxCell>
        <mxCell id="dWIAZpZKa0cs_iQSi05g-4" value="zabbix agent" style="rounded=1;whiteSpace=wrap;html=1;" vertex="1" parent="1">
          <mxGeometry x="260" y="230" width="120" height="30" as="geometry" />
        </mxCell>
        <mxCell id="dWIAZpZKa0cs_iQSi05g-10" value="zabbix监控逻辑概述：通过agent获取数据，server负责处理数据和展示；获取方式可以主动推送和被动调用&lt;br&gt;zabbix采用基于tcp/ip的自定义协议进行通信，保证即时性和安全性" style="text;html=1;strokeColor=none;fillColor=none;align=center;verticalAlign=middle;whiteSpace=wrap;rounded=0;" vertex="1" parent="1">
          <mxGeometry x="40" y="10" width="330" height="90" as="geometry" />
        </mxCell>
        <mxCell id="dWIAZpZKa0cs_iQSi05g-13" value="" style="endArrow=classic;html=1;rounded=0;exitX=0.5;exitY=1;exitDx=0;exitDy=0;" edge="1" parent="1" source="dWIAZpZKa0cs_iQSi05g-4">
          <mxGeometry width="50" height="50" relative="1" as="geometry">
            <mxPoint x="320" y="340" as="sourcePoint" />
            <mxPoint x="320" y="320" as="targetPoint" />
          </mxGeometry>
        </mxCell>
        <mxCell id="dWIAZpZKa0cs_iQSi05g-20" style="edgeStyle=orthogonalEdgeStyle;rounded=0;orthogonalLoop=1;jettySize=auto;html=1;" edge="1" parent="1" source="dWIAZpZKa0cs_iQSi05g-14" target="dWIAZpZKa0cs_iQSi05g-16">
          <mxGeometry relative="1" as="geometry" />
        </mxCell>
        <mxCell id="dWIAZpZKa0cs_iQSi05g-21" style="edgeStyle=orthogonalEdgeStyle;rounded=0;orthogonalLoop=1;jettySize=auto;html=1;exitX=0.25;exitY=1;exitDx=0;exitDy=0;entryX=0.5;entryY=0;entryDx=0;entryDy=0;" edge="1" parent="1" source="dWIAZpZKa0cs_iQSi05g-14" target="dWIAZpZKa0cs_iQSi05g-19">
          <mxGeometry relative="1" as="geometry" />
        </mxCell>
        <mxCell id="dWIAZpZKa0cs_iQSi05g-22" style="edgeStyle=orthogonalEdgeStyle;rounded=0;orthogonalLoop=1;jettySize=auto;html=1;exitX=0.75;exitY=1;exitDx=0;exitDy=0;" edge="1" parent="1" source="dWIAZpZKa0cs_iQSi05g-14" target="dWIAZpZKa0cs_iQSi05g-18">
          <mxGeometry relative="1" as="geometry" />
        </mxCell>
        <mxCell id="dWIAZpZKa0cs_iQSi05g-23" style="edgeStyle=orthogonalEdgeStyle;rounded=0;orthogonalLoop=1;jettySize=auto;html=1;" edge="1" parent="1" source="dWIAZpZKa0cs_iQSi05g-14" target="dWIAZpZKa0cs_iQSi05g-17">
          <mxGeometry relative="1" as="geometry" />
        </mxCell>
        <mxCell id="dWIAZpZKa0cs_iQSi05g-14" value="agent 和 agent extensions" style="rounded=0;whiteSpace=wrap;html=1;" vertex="1" parent="1">
          <mxGeometry x="200" y="320" width="280" height="60" as="geometry" />
        </mxCell>
        <mxCell id="dWIAZpZKa0cs_iQSi05g-15" value="agent监控逻辑：基础监控数据可以通过对应系统（windows or linux）获取对应版本，实现基础服务监控；&lt;br&gt;对自带的无法实现的监控指标，例如数据库内部指标，可以通过agent extension来实现" style="text;html=1;strokeColor=none;fillColor=none;align=center;verticalAlign=middle;whiteSpace=wrap;rounded=0;" vertex="1" parent="1">
          <mxGeometry x="470" y="175" width="300" height="205" as="geometry" />
        </mxCell>
        <mxCell id="dWIAZpZKa0cs_iQSi05g-16" value="读取系统文件" style="rounded=1;whiteSpace=wrap;html=1;" vertex="1" parent="1">
          <mxGeometry x="70" y="430" width="120" height="60" as="geometry" />
        </mxCell>
        <mxCell id="dWIAZpZKa0cs_iQSi05g-17" value="其他自定义方式" style="rounded=1;whiteSpace=wrap;html=1;" vertex="1" parent="1">
          <mxGeometry x="490" y="430" width="120" height="60" as="geometry" />
        </mxCell>
        <mxCell id="dWIAZpZKa0cs_iQSi05g-18" value="调用系统API接口" style="rounded=1;whiteSpace=wrap;html=1;" vertex="1" parent="1">
          <mxGeometry x="350" y="430" width="120" height="60" as="geometry" />
        </mxCell>
        <mxCell id="dWIAZpZKa0cs_iQSi05g-19" value="执行命令" style="rounded=1;whiteSpace=wrap;html=1;" vertex="1" parent="1">
          <mxGeometry x="210" y="430" width="120" height="60" as="geometry" />
        </mxCell>
        <mxCell id="dWIAZpZKa0cs_iQSi05g-25" value="&lt;h1&gt;zabbix&lt;/h1&gt;&lt;div&gt;Zabbix是一种开源的企业级网络监控和管理解决方案。它提供了一套全面的功能，可用于监控和管理网络、服务器、应用程序和云环境等各种IT基础设施；&lt;br&gt;&lt;/div&gt;&lt;div&gt;Zabbix Server: 监控和管理大规模IT基础设施的中心节点，收集、分析和展示监控数据，触发警报和自动化任务；&lt;br&gt;&lt;/div&gt;&lt;div&gt;Zabbix Agent: 运行在被监控主机上的软件代理，收集和传输监控数据给Zabbix Server，执行服务器下发的配置和命令；&lt;br&gt;&lt;/div&gt;" style="text;html=1;strokeColor=none;fillColor=none;spacing=5;spacingTop=-20;whiteSpace=wrap;overflow=hidden;rounded=0;" vertex="1" parent="1">
          <mxGeometry x="480" y="10" width="320" height="220" as="geometry" />
        </mxCell>
        <mxCell id="dWIAZpZKa0cs_iQSi05g-27" value="具体采用何种方式取决于底层操作系统和agent的相关配置" style="text;html=1;strokeColor=none;fillColor=none;align=center;verticalAlign=middle;whiteSpace=wrap;rounded=0;" vertex="1" parent="1">
          <mxGeometry x="620" y="350" width="190" height="140" as="geometry" />
        </mxCell>
        <mxCell id="dWIAZpZKa0cs_iQSi05g-28" value="zabbix实现监控逻辑流程说明概览" style="text;html=1;strokeColor=none;fillColor=none;align=center;verticalAlign=middle;whiteSpace=wrap;rounded=0;" vertex="1" parent="1">
          <mxGeometry x="40" y="520" width="110" height="30" as="geometry" />
        </mxCell>
        <mxCell id="dWIAZpZKa0cs_iQSi05g-38" style="edgeStyle=orthogonalEdgeStyle;rounded=0;orthogonalLoop=1;jettySize=auto;html=1;exitX=1;exitY=0.5;exitDx=0;exitDy=0;" edge="1" parent="1" source="dWIAZpZKa0cs_iQSi05g-29" target="dWIAZpZKa0cs_iQSi05g-31">
          <mxGeometry relative="1" as="geometry" />
        </mxCell>
        <mxCell id="dWIAZpZKa0cs_iQSi05g-29" value="配置监控项（预定义，自定义）" style="rounded=1;whiteSpace=wrap;html=1;" vertex="1" parent="1">
          <mxGeometry x="40" y="570" width="100" height="75" as="geometry" />
        </mxCell>
        <mxCell id="dWIAZpZKa0cs_iQSi05g-39" style="edgeStyle=orthogonalEdgeStyle;rounded=0;orthogonalLoop=1;jettySize=auto;html=1;entryX=0;entryY=0.5;entryDx=0;entryDy=0;" edge="1" parent="1" source="dWIAZpZKa0cs_iQSi05g-31" target="dWIAZpZKa0cs_iQSi05g-32">
          <mxGeometry relative="1" as="geometry" />
        </mxCell>
        <mxCell id="dWIAZpZKa0cs_iQSi05g-31" value="将监控项分配到对应主机" style="rounded=1;whiteSpace=wrap;html=1;" vertex="1" parent="1">
          <mxGeometry x="180" y="570" width="100" height="75" as="geometry" />
        </mxCell>
        <mxCell id="dWIAZpZKa0cs_iQSi05g-40" style="edgeStyle=orthogonalEdgeStyle;rounded=0;orthogonalLoop=1;jettySize=auto;html=1;entryX=0;entryY=0.5;entryDx=0;entryDy=0;" edge="1" parent="1" source="dWIAZpZKa0cs_iQSi05g-32" target="dWIAZpZKa0cs_iQSi05g-33">
          <mxGeometry relative="1" as="geometry" />
        </mxCell>
        <mxCell id="dWIAZpZKa0cs_iQSi05g-42" style="edgeStyle=orthogonalEdgeStyle;rounded=0;orthogonalLoop=1;jettySize=auto;html=1;" edge="1" parent="1" source="dWIAZpZKa0cs_iQSi05g-32" target="dWIAZpZKa0cs_iQSi05g-35">
          <mxGeometry relative="1" as="geometry" />
        </mxCell>
        <mxCell id="dWIAZpZKa0cs_iQSi05g-32" value="配置触发器（简单触发器，多条件触发器）" style="rounded=1;whiteSpace=wrap;html=1;" vertex="1" parent="1">
          <mxGeometry x="321" y="570" width="100" height="75" as="geometry" />
        </mxCell>
        <mxCell id="dWIAZpZKa0cs_iQSi05g-41" style="edgeStyle=orthogonalEdgeStyle;rounded=0;orthogonalLoop=1;jettySize=auto;html=1;exitX=1;exitY=0.5;exitDx=0;exitDy=0;entryX=0;entryY=0.5;entryDx=0;entryDy=0;" edge="1" parent="1" source="dWIAZpZKa0cs_iQSi05g-33" target="dWIAZpZKa0cs_iQSi05g-34">
          <mxGeometry relative="1" as="geometry" />
        </mxCell>
        <mxCell id="dWIAZpZKa0cs_iQSi05g-33" value="配置报警操作（邮件，短信等）" style="rounded=1;whiteSpace=wrap;html=1;" vertex="1" parent="1">
          <mxGeometry x="460" y="570" width="100" height="75" as="geometry" />
        </mxCell>
        <mxCell id="dWIAZpZKa0cs_iQSi05g-34" value="配置自动发现（针对集群环境，可以对新增主机自动发现和下发监控项）" style="rounded=1;whiteSpace=wrap;html=1;" vertex="1" parent="1">
          <mxGeometry x="600" y="570" width="100" height="75" as="geometry" />
        </mxCell>
        <mxCell id="dWIAZpZKa0cs_iQSi05g-43" style="edgeStyle=orthogonalEdgeStyle;rounded=0;orthogonalLoop=1;jettySize=auto;html=1;exitX=0;exitY=0.5;exitDx=0;exitDy=0;entryX=1;entryY=0.5;entryDx=0;entryDy=0;" edge="1" parent="1" source="dWIAZpZKa0cs_iQSi05g-35" target="dWIAZpZKa0cs_iQSi05g-36">
          <mxGeometry relative="1" as="geometry" />
        </mxCell>
        <mxCell id="dWIAZpZKa0cs_iQSi05g-35" value="监控数据收集" style="rounded=1;whiteSpace=wrap;html=1;" vertex="1" parent="1">
          <mxGeometry x="321" y="680" width="100" height="75" as="geometry" />
        </mxCell>
        <mxCell id="dWIAZpZKa0cs_iQSi05g-44" style="edgeStyle=orthogonalEdgeStyle;rounded=0;orthogonalLoop=1;jettySize=auto;html=1;exitX=0;exitY=0.5;exitDx=0;exitDy=0;" edge="1" parent="1" source="dWIAZpZKa0cs_iQSi05g-36" target="dWIAZpZKa0cs_iQSi05g-37">
          <mxGeometry relative="1" as="geometry" />
        </mxCell>
        <mxCell id="dWIAZpZKa0cs_iQSi05g-36" value="数据存储和分析" style="rounded=1;whiteSpace=wrap;html=1;" vertex="1" parent="1">
          <mxGeometry x="180" y="680" width="100" height="75" as="geometry" />
        </mxCell>
        <mxCell id="dWIAZpZKa0cs_iQSi05g-37" value="页面展示" style="rounded=1;whiteSpace=wrap;html=1;" vertex="1" parent="1">
          <mxGeometry x="40" y="680" width="100" height="75" as="geometry" />
        </mxCell>
        <mxCell id="dWIAZpZKa0cs_iQSi05g-45" value="Linux和Windows中agent的区别概述，以下讨论只针对预定义监控项" style="text;html=1;strokeColor=none;fillColor=none;align=center;verticalAlign=middle;whiteSpace=wrap;rounded=0;" vertex="1" parent="1">
          <mxGeometry x="40" y="790" width="110" height="30" as="geometry" />
        </mxCell>
        <mxCell id="dWIAZpZKa0cs_iQSi05g-49" value="" style="edgeStyle=orthogonalEdgeStyle;rounded=0;orthogonalLoop=1;jettySize=auto;html=1;" edge="1" parent="1" source="dWIAZpZKa0cs_iQSi05g-46" target="dWIAZpZKa0cs_iQSi05g-48">
          <mxGeometry relative="1" as="geometry" />
        </mxCell>
        <mxCell id="dWIAZpZKa0cs_iQSi05g-46" value="linux 服务器" style="rounded=0;whiteSpace=wrap;html=1;" vertex="1" parent="1">
          <mxGeometry x="40" y="850" width="130" height="60" as="geometry" />
        </mxCell>
        <mxCell id="dWIAZpZKa0cs_iQSi05g-51" value="" style="edgeStyle=orthogonalEdgeStyle;rounded=0;orthogonalLoop=1;jettySize=auto;html=1;" edge="1" parent="1" source="dWIAZpZKa0cs_iQSi05g-47" target="dWIAZpZKa0cs_iQSi05g-50">
          <mxGeometry relative="1" as="geometry" />
        </mxCell>
        <mxCell id="dWIAZpZKa0cs_iQSi05g-47" value="windows 服务器" style="rounded=0;whiteSpace=wrap;html=1;" vertex="1" parent="1">
          <mxGeometry x="40" y="960" width="130" height="60" as="geometry" />
        </mxCell>
        <mxCell id="dWIAZpZKa0cs_iQSi05g-48" value="linux可以通过基础命令，如proc&amp;nbsp; top sys等命令获取相关监控项数据" style="whiteSpace=wrap;html=1;rounded=0;" vertex="1" parent="1">
          <mxGeometry x="210" y="850" width="120" height="60" as="geometry" />
        </mxCell>
        <mxCell id="dWIAZpZKa0cs_iQSi05g-50" value="windows可以通过wmi 任务管理器，资源管理器，性能计数器的相关api接口获取数据" style="whiteSpace=wrap;html=1;rounded=0;" vertex="1" parent="1">
          <mxGeometry x="210" y="960" width="120" height="60" as="geometry" />
        </mxCell>
        <mxCell id="dWIAZpZKa0cs_iQSi05g-52" value="zabbix各模块间关系概览" style="text;html=1;strokeColor=none;fillColor=none;align=center;verticalAlign=middle;whiteSpace=wrap;rounded=0;" vertex="1" parent="1">
          <mxGeometry x="40" y="1060" width="60" height="30" as="geometry" />
        </mxCell>
        <mxCell id="dWIAZpZKa0cs_iQSi05g-57" style="edgeStyle=orthogonalEdgeStyle;rounded=0;orthogonalLoop=1;jettySize=auto;html=1;entryX=0;entryY=0.5;entryDx=0;entryDy=0;" edge="1" parent="1" source="dWIAZpZKa0cs_iQSi05g-53" target="dWIAZpZKa0cs_iQSi05g-56">
          <mxGeometry relative="1" as="geometry" />
        </mxCell>
        <mxCell id="dWIAZpZKa0cs_iQSi05g-53" value="zabbix server" style="rounded=1;whiteSpace=wrap;html=1;" vertex="1" parent="1">
          <mxGeometry x="40" y="1110" width="130" height="60" as="geometry" />
        </mxCell>
        <mxCell id="dWIAZpZKa0cs_iQSi05g-59" style="edgeStyle=orthogonalEdgeStyle;rounded=0;orthogonalLoop=1;jettySize=auto;html=1;exitX=0;exitY=0;exitDx=0;exitDy=0;entryX=0.5;entryY=0;entryDx=0;entryDy=0;" edge="1" parent="1" source="dWIAZpZKa0cs_iQSi05g-54" target="dWIAZpZKa0cs_iQSi05g-56">
          <mxGeometry relative="1" as="geometry" />
        </mxCell>
        <mxCell id="dWIAZpZKa0cs_iQSi05g-69" style="edgeStyle=orthogonalEdgeStyle;rounded=0;orthogonalLoop=1;jettySize=auto;html=1;entryX=1;entryY=0.5;entryDx=0;entryDy=0;" edge="1" parent="1" source="dWIAZpZKa0cs_iQSi05g-54" target="dWIAZpZKa0cs_iQSi05g-63">
          <mxGeometry relative="1" as="geometry">
            <Array as="points">
              <mxPoint x="780" y="1250" />
            </Array>
          </mxGeometry>
        </mxCell>
        <mxCell id="dWIAZpZKa0cs_iQSi05g-54" value="zabbix agent" style="rounded=1;whiteSpace=wrap;html=1;" vertex="1" parent="1">
          <mxGeometry x="720" y="1110" width="120" height="60" as="geometry" />
        </mxCell>
        <mxCell id="dWIAZpZKa0cs_iQSi05g-62" style="edgeStyle=orthogonalEdgeStyle;rounded=0;orthogonalLoop=1;jettySize=auto;html=1;exitX=0;exitY=0.5;exitDx=0;exitDy=0;exitPerimeter=0;entryX=0;entryY=0.5;entryDx=0;entryDy=0;" edge="1" parent="1" source="dWIAZpZKa0cs_iQSi05g-55" target="dWIAZpZKa0cs_iQSi05g-53">
          <mxGeometry relative="1" as="geometry" />
        </mxCell>
        <mxCell id="dWIAZpZKa0cs_iQSi05g-55" value="database" style="shape=cylinder3;whiteSpace=wrap;html=1;boundedLbl=1;backgroundOutline=1;size=15;" vertex="1" parent="1">
          <mxGeometry x="50" y="1270" width="100" height="80" as="geometry" />
        </mxCell>
        <mxCell id="dWIAZpZKa0cs_iQSi05g-58" style="edgeStyle=orthogonalEdgeStyle;rounded=0;orthogonalLoop=1;jettySize=auto;html=1;entryX=0;entryY=0.5;entryDx=0;entryDy=0;" edge="1" parent="1" source="dWIAZpZKa0cs_iQSi05g-56" target="dWIAZpZKa0cs_iQSi05g-54">
          <mxGeometry relative="1" as="geometry" />
        </mxCell>
        <mxCell id="dWIAZpZKa0cs_iQSi05g-67" style="edgeStyle=orthogonalEdgeStyle;rounded=0;orthogonalLoop=1;jettySize=auto;html=1;entryX=0.5;entryY=1;entryDx=0;entryDy=0;" edge="1" parent="1" source="dWIAZpZKa0cs_iQSi05g-56" target="dWIAZpZKa0cs_iQSi05g-53">
          <mxGeometry relative="1" as="geometry">
            <Array as="points">
              <mxPoint x="440" y="1190" />
              <mxPoint x="105" y="1190" />
            </Array>
          </mxGeometry>
        </mxCell>
        <mxCell id="dWIAZpZKa0cs_iQSi05g-56" value="zabbix sender" style="rounded=1;whiteSpace=wrap;html=1;" vertex="1" parent="1">
          <mxGeometry x="380" y="1110" width="120" height="60" as="geometry" />
        </mxCell>
        <mxCell id="dWIAZpZKa0cs_iQSi05g-68" style="edgeStyle=orthogonalEdgeStyle;rounded=0;orthogonalLoop=1;jettySize=auto;html=1;entryX=1;entryY=0.75;entryDx=0;entryDy=0;" edge="1" parent="1" source="dWIAZpZKa0cs_iQSi05g-63" target="dWIAZpZKa0cs_iQSi05g-53">
          <mxGeometry relative="1" as="geometry">
            <Array as="points">
              <mxPoint x="440" y="1200" />
              <mxPoint x="275" y="1200" />
              <mxPoint x="275" y="1155" />
            </Array>
          </mxGeometry>
        </mxCell>
        <mxCell id="dWIAZpZKa0cs_iQSi05g-63" value="zabbix proxy" style="rounded=1;whiteSpace=wrap;html=1;" vertex="1" parent="1">
          <mxGeometry x="380" y="1220" width="120" height="60" as="geometry" />
        </mxCell>
        <mxCell id="dWIAZpZKa0cs_iQSi05g-65" style="edgeStyle=orthogonalEdgeStyle;rounded=0;orthogonalLoop=1;jettySize=auto;html=1;entryX=0.25;entryY=1;entryDx=0;entryDy=0;" edge="1" parent="1" source="dWIAZpZKa0cs_iQSi05g-64" target="dWIAZpZKa0cs_iQSi05g-53">
          <mxGeometry relative="1" as="geometry" />
        </mxCell>
        <mxCell id="dWIAZpZKa0cs_iQSi05g-64" value="zabbix web" style="rounded=1;whiteSpace=wrap;html=1;" vertex="1" parent="1">
          <mxGeometry x="200" y="1220" width="121" height="60" as="geometry" />
        </mxCell>
        <mxCell id="dWIAZpZKa0cs_iQSi05g-70" value="&lt;div&gt;&lt;ul&gt;&lt;li&gt;Zabbix Agents通过自定义的协议与Zabbix Server进行通信，将监控数据传输给Zabbix Server，并接收配置和命令。&lt;/li&gt;&lt;li&gt;Zabbix Server负责接收、存储、处理和分析监控数据，并进行警报和自动化操作。它还通过前端界面提供系统的管理和可视化。&lt;/li&gt;&lt;li&gt;数据库用于存储Zabbix系统的配置数据和监控数据，供Zabbix Server和前端界面访问和查询。&lt;/li&gt;&lt;li&gt;Proxy可选，用于分散Zabbix Server的负载和缓解网络传输的压力。&lt;/li&gt;&lt;li&gt;Agentless监控是一种可选的监控模式，通过网络协议或其他方法直接获取监控数据，无需安装Zabbix Agents&lt;/li&gt;&lt;li&gt;Zabbix Sender是Zabbix监控系统中的一个工具，用于向Zabbix Server发送监控数据。它允许用户通过命令行或编程方式将自定义的监控数据发送给Zabbix Server，以供后续处理和分析&lt;/li&gt;&lt;/ul&gt;&lt;/div&gt;" style="rounded=0;whiteSpace=wrap;html=1;align=left;" vertex="1" parent="1">
          <mxGeometry x="40" y="1370" width="800" height="130" as="geometry" />
        </mxCell>
      </root>
    </mxGraphModel>
  </diagram>
</mxfile>
